<mxfile host="app.diagrams.net" modified="2024-05-29T05:59:51.444Z" agent="Mozilla/5.0 (Macintosh; Intel Mac OS X 10_15_7) AppleWebKit/537.36 (KHTML, like Gecko) Chrome/125.0.0.0 Safari/537.36" version="24.4.8" etag="NRdNykHw3vISbdGklb1O" type="github">
  <diagram name="Halaman-1" id="dy-Ef3yTZqT_mWo9npSa">
    <mxGraphModel>
      <root>
        <mxCell id="0" />
        <mxCell id="1" parent="0" />
      </root>
    </mxGraphModel>
  </diagram>
</mxfile>
